<svg xmlns="http://www.w3.org/2000/svg" viewBox="0 0 28 28" height="28" width="28"><title>building-alt1-15.svg</title><rect fill="none" x="0" y="0" width="28" height="28"></rect><rect x="4" y="4" rx="3" ry="3" width="19" height="19" stroke="#bd4d4d" style="stroke-linejoin:round;stroke-miterlimit:4;" fill="#bd4d4d" stroke-width="4"></rect><rect x="4" y="4" width="19" height="19" rx="3" ry="3" fill="#fff"></rect><path fill="#fff" transform="translate(6 6)" d="M11,13.5v-9C11,4.2,10.8,4,10.5,4H9V1L5,2.1v11.4H2V14h11v-0.5H11z M7,13.5V3h1v10.5H7z" style="stroke-linejoin:round;stroke-miterlimit:4;" stroke="#fff" stroke-width="5"></path><path fill="#bd4d4d" transform="translate(6 6)" d="M11,13.5v-9C11,4.2,10.8,4,10.5,4H9V1L5,2.1v11.4H2V14h11v-0.5H11z M7,13.5V3h1v10.5H7z"></path></svg>