<svg xmlns="http://www.w3.org/2000/svg" viewBox="0 0 28 28" height="28" width="28"><title>building-15.svg</title><rect fill="none" x="0" y="0" width="28" height="28"></rect><rect x="4" y="4" rx="3" ry="3" width="19" height="19" stroke="#bd4d4d" style="stroke-linejoin:round;stroke-miterlimit:4;" fill="#bd4d4d" stroke-width="4"></rect><rect x="4" y="4" width="19" height="19" rx="3" ry="3" fill="#fff"></rect><path fill="#fff" transform="translate(6 6)" d="M3,2v11h5v-3h3v3h1V2H3z M7,12H4v-2h3V12z M7,9H4V7h3V9z M7,6H4V4h3V6z M11,9H8V7h3V9z M11,6H8V4h3V6z" style="stroke-linejoin:round;stroke-miterlimit:4;" stroke="#fff" stroke-width="5"></path><path fill="#bd4d4d" transform="translate(6 6)" d="M3,2v11h5v-3h3v3h1V2H3z M7,12H4v-2h3V12z M7,9H4V7h3V9z M7,6H4V4h3V6z M11,9H8V7h3V9z M11,6H8V4h3V6z"></path></svg>