<svg xmlns="http://www.w3.org/2000/svg" viewBox="0 0 28 28" height="28" width="28"><title>commercial-15.svg</title><rect fill="none" x="0" y="0" width="28" height="28"></rect><rect x="4" y="4" rx="3" ry="3" width="19" height="19" stroke="#bd4d4d" style="stroke-linejoin:round;stroke-miterlimit:4;" fill="#bd4d4d" stroke-width="4"></rect><rect x="4" y="4" width="19" height="19" rx="3" ry="3" fill="#fff"></rect><path fill="#fff" transform="translate(6 6)" d="M14,7H1c0.0881-1.3829,0.427-2.7383,1-4h11C13.5731,4.2617,13.9119,5.6171,14,7z M3,8h9v6h-1V9H8v5H3V8z M4,11h3V9H4V11z" style="stroke-linejoin:round;stroke-miterlimit:4;" stroke="#fff" stroke-width="5"></path><path fill="#bd4d4d" transform="translate(6 6)" d="M14,7H1c0.0881-1.3829,0.427-2.7383,1-4h11C13.5731,4.2617,13.9119,5.6171,14,7z M3,8h9v6h-1V9H8v5H3V8z M4,11h3V9H4V11z"></path></svg>