<svg xmlns="http://www.w3.org/2000/svg" viewBox="0 0 28 28" height="28" width="28"><title>entrance-alt1-15.svg</title><rect fill="none" x="0" y="0" width="28" height="28"></rect><rect x="4" y="4" rx="3" ry="3" width="19" height="19" stroke="#bd4d4d" style="stroke-linejoin:round;stroke-miterlimit:4;" fill="#bd4d4d" stroke-width="4"></rect><rect x="4" y="4" width="19" height="19" rx="3" ry="3" fill="#fff"></rect><path fill="#fff" transform="translate(6 6)" d="M6.554,9.639a.5.5,0,0,0,.707.707L9.928,7.669a.25.25,0,0,0,0-.354h0L7.261,4.639a.5.5,0,0,0-.707.707L8.2,7H1.5a.5.5,0,0,0,0,1H8.2ZM12,1H5.5a.5.5,0,0,0,0,1h6a.5.5,0,0,1,.5.5v10a.5.5,0,0,1-.5.5H5.25a.5.5,0,0,0,0,1H12a1,1,0,0,0,1-1V2A1,1,0,0,0,12,1Z" style="stroke-linejoin:round;stroke-miterlimit:4;" stroke="#fff" stroke-width="5"></path><path fill="#bd4d4d" transform="translate(6 6)" d="M6.554,9.639a.5.5,0,0,0,.707.707L9.928,7.669a.25.25,0,0,0,0-.354h0L7.261,4.639a.5.5,0,0,0-.707.707L8.2,7H1.5a.5.5,0,0,0,0,1H8.2ZM12,1H5.5a.5.5,0,0,0,0,1h6a.5.5,0,0,1,.5.5v10a.5.5,0,0,1-.5.5H5.25a.5.5,0,0,0,0,1H12a1,1,0,0,0,1-1V2A1,1,0,0,0,12,1Z"></path></svg>