<svg xmlns="http://www.w3.org/2000/svg" viewBox="0 0 28 28" height="28" width="28"><title>fence-15.svg</title><rect fill="none" x="0" y="0" width="28" height="28"></rect><rect x="4" y="4" rx="3" ry="3" width="19" height="19" stroke="#bd4d4d" style="stroke-linejoin:round;stroke-miterlimit:4;" fill="#bd4d4d" stroke-width="4"></rect><rect x="4" y="4" width="19" height="19" rx="3" ry="3" fill="#fff"></rect><path fill="#fff" transform="translate(6 6)" d="M13.5,10H13V7h.5a.5.5,0,0,0,0-1H13V4l-.286-.573a.249.249,0,0,0-.424-.006L12,4V6H11V4l-.286-.573a.249.249,0,0,0-.424-.006L10,4V6H9V4l-.286-.573a.249.249,0,0,0-.424-.006L8,4V6H7V4l-.286-.573a.249.249,0,0,0-.424-.006L6,4V6H5V4l-.286-.573a.249.249,0,0,0-.424-.006L4,4V6H3V4l-.286-.573a.249.249,0,0,0-.424-.006L2,4V6H1.5a.5.5,0,0,0,0,1H2v3H1.5a.5.5,0,0,0,0,1H2v1.5a.5.5,0,0,0,1,0V11H4v1.5a.5.5,0,0,0,1,0V11H6v1.5a.5.5,0,0,0,1,0V11H8v1.5a.5.5,0,0,0,1,0V11h1v1.5a.5.5,0,0,0,1,0V11h1v1.5a.5.5,0,0,0,1,0V11h.5a.5.5,0,0,0,0-1ZM3,10V7H4v3Zm2,0V7H6v3Zm2,0V7H8v3Zm2,0V7h1v3Zm2,0V7h1v3Z" style="stroke-linejoin:round;stroke-miterlimit:4;" stroke="#fff" stroke-width="5"></path><path fill="#bd4d4d" transform="translate(6 6)" d="M13.5,10H13V7h.5a.5.5,0,0,0,0-1H13V4l-.286-.573a.249.249,0,0,0-.424-.006L12,4V6H11V4l-.286-.573a.249.249,0,0,0-.424-.006L10,4V6H9V4l-.286-.573a.249.249,0,0,0-.424-.006L8,4V6H7V4l-.286-.573a.249.249,0,0,0-.424-.006L6,4V6H5V4l-.286-.573a.249.249,0,0,0-.424-.006L4,4V6H3V4l-.286-.573a.249.249,0,0,0-.424-.006L2,4V6H1.5a.5.5,0,0,0,0,1H2v3H1.5a.5.5,0,0,0,0,1H2v1.5a.5.5,0,0,0,1,0V11H4v1.5a.5.5,0,0,0,1,0V11H6v1.5a.5.5,0,0,0,1,0V11H8v1.5a.5.5,0,0,0,1,0V11h1v1.5a.5.5,0,0,0,1,0V11h1v1.5a.5.5,0,0,0,1,0V11h.5a.5.5,0,0,0,0-1ZM3,10V7H4v3Zm2,0V7H6v3Zm2,0V7H8v3Zm2,0V7h1v3Zm2,0V7h1v3Z"></path></svg>