<svg xmlns="http://www.w3.org/2000/svg" viewBox="0 0 28 28" height="28" width="28"><title>heart-15.svg</title><rect fill="none" x="0" y="0" width="28" height="28"></rect><rect x="4" y="4" rx="3" ry="3" width="19" height="19" stroke="#bd4d4d" style="stroke-linejoin:round;stroke-miterlimit:4;" fill="#bd4d4d" stroke-width="4"></rect><rect x="4" y="4" width="19" height="19" rx="3" ry="3" fill="#fff"></rect><path fill="#fff" transform="translate(6 6)" d="M13.91,6.75c-1.17,2.25-4.3,5.31-6.07,6.94c-0.1903,0.1718-0.4797,0.1718-0.67,0C5.39,12.06,2.26,9,1.09,6.75
	C-1.48,1.8,5-1.5,7.5,3.45C10-1.5,16.48,1.8,13.91,6.75z" style="stroke-linejoin:round;stroke-miterlimit:4;" stroke="#fff" stroke-width="5"></path><path fill="#bd4d4d" transform="translate(6 6)" d="M13.91,6.75c-1.17,2.25-4.3,5.31-6.07,6.94c-0.1903,0.1718-0.4797,0.1718-0.67,0C5.39,12.06,2.26,9,1.09,6.75
	C-1.48,1.8,5-1.5,7.5,3.45C10-1.5,16.48,1.8,13.91,6.75z"></path></svg>