<svg xmlns="http://www.w3.org/2000/svg" viewBox="0 0 28 28" height="28" width="28"><title>hospital-15.svg</title><rect fill="none" x="0" y="0" width="28" height="28"></rect><rect x="4" y="4" rx="3" ry="3" width="19" height="19" stroke="#bd4d4d" style="stroke-linejoin:round;stroke-miterlimit:4;" fill="#bd4d4d" stroke-width="4"></rect><rect x="4" y="4" width="19" height="19" rx="3" ry="3" fill="#fff"></rect><path fill="#fff" transform="translate(6 6)" d="M7,1C6.4,1,6,1.4,6,2v4H2C1.4,6,1,6.4,1,7v1
	c0,0.6,0.4,1,1,1h4v4c0,0.6,0.4,1,1,1h1c0.6,0,1-0.4,1-1V9h4c0.6,0,1-0.4,1-1V7c0-0.6-0.4-1-1-1H9V2c0-0.6-0.4-1-1-1H7z" style="stroke-linejoin:round;stroke-miterlimit:4;" stroke="#fff" stroke-width="5"></path><path fill="#bd4d4d" transform="translate(6 6)" d="M7,1C6.4,1,6,1.4,6,2v4H2C1.4,6,1,6.4,1,7v1
	c0,0.6,0.4,1,1,1h4v4c0,0.6,0.4,1,1,1h1c0.6,0,1-0.4,1-1V9h4c0.6,0,1-0.4,1-1V7c0-0.6-0.4-1-1-1H9V2c0-0.6-0.4-1-1-1H7z"></path></svg>