<svg xmlns="http://www.w3.org/2000/svg" viewBox="0 0 28 28" height="28" width="28"><title>industry-15.svg</title><rect fill="none" x="0" y="0" width="28" height="28"></rect><rect x="4" y="4" rx="3" ry="3" width="19" height="19" stroke="#bd4d4d" style="stroke-linejoin:round;stroke-miterlimit:4;" fill="#bd4d4d" stroke-width="4"></rect><rect x="4" y="4" width="19" height="19" rx="3" ry="3" fill="#fff"></rect><path fill="#fff" transform="translate(6 6)" d="M14,1v12H1V8.72c0.0016-0.1419,0.0634-0.2764,0.17-0.37l3-3.22c0.2074-0.1823,0.5234-0.1618,0.7056,0.0456
	C4.9568,5.268,5.0011,5.387,5,5.51v3l3.16-3.37c0.2025-0.1878,0.5188-0.1759,0.7066,0.0266C8.9532,5.2599,9.0009,5.3827,9,5.51V11h3
	V1H14z" style="stroke-linejoin:round;stroke-miterlimit:4;" stroke="#fff" stroke-width="5"></path><path fill="#bd4d4d" transform="translate(6 6)" d="M14,1v12H1V8.72c0.0016-0.1419,0.0634-0.2764,0.17-0.37l3-3.22c0.2074-0.1823,0.5234-0.1618,0.7056,0.0456
	C4.9568,5.268,5.0011,5.387,5,5.51v3l3.16-3.37c0.2025-0.1878,0.5188-0.1759,0.7066,0.0266C8.9532,5.2599,9.0009,5.3827,9,5.51V11h3
	V1H14z"></path></svg>