<svg xmlns="http://www.w3.org/2000/svg" viewBox="0 0 28 28" height="28" width="28"><title>karaoke-15.svg</title><rect fill="none" x="0" y="0" width="28" height="28"></rect><rect x="4" y="4" rx="3" ry="3" width="19" height="19" stroke="#bd4d4d" style="stroke-linejoin:round;stroke-miterlimit:4;" fill="#bd4d4d" stroke-width="4"></rect><rect x="4" y="4" width="19" height="19" rx="3" ry="3" fill="#fff"></rect><path fill="#fff" transform="translate(6 6)" d="M12.1,2.952A2.988,2.988,0,0,0,6.99,4.917l3.142,3.142A2.988,2.988,0,0,0,12.1,2.952Z" style="stroke-linejoin:round;stroke-miterlimit:4;" stroke="#fff" stroke-width="5"></path><path fill="#fff" transform="translate(6 6)" d="M4.672,8.255,2.55,10.377a1,1,0,0,0,0,1.414l.707.707a1,1,0,0,0,1.414,0l2.121-2.121L8.914,8.255,6.793,6.134Zm.741,2.087-.707-.707L6.793,7.548l.707.707Z" style="stroke-linejoin:round;stroke-miterlimit:4;" stroke="#fff" stroke-width="5"></path><path fill="#bd4d4d" transform="translate(6 6)" d="M12.1,2.952A2.988,2.988,0,0,0,6.99,4.917l3.142,3.142A2.988,2.988,0,0,0,12.1,2.952Z"></path><path fill="#bd4d4d" transform="translate(6 6)" d="M4.672,8.255,2.55,10.377a1,1,0,0,0,0,1.414l.707.707a1,1,0,0,0,1.414,0l2.121-2.121L8.914,8.255,6.793,6.134Zm.741,2.087-.707-.707L6.793,7.548l.707.707Z"></path></svg>