<svg xmlns="http://www.w3.org/2000/svg" viewBox="0 0 28 28" height="28" width="28"><title>ranger-station-15.svg</title><rect fill="none" x="0" y="0" width="28" height="28"></rect><rect x="4" y="4" rx="3" ry="3" width="19" height="19" stroke="#bd4d4d" style="stroke-linejoin:round;stroke-miterlimit:4;" fill="#bd4d4d" stroke-width="4"></rect><rect x="4" y="4" width="19" height="19" rx="3" ry="3" fill="#fff"></rect><path fill="#fff" transform="translate(6 6)" d="M9,0.5l-2,1v3.7734L2,8v6h4v-4h3
	v4h4V8L8,5.2734V4l1-0.5l2,1l2-1v-3l-2,1L9,0.5z" style="stroke-linejoin:round;stroke-miterlimit:4;" stroke="#fff" stroke-width="5"></path><path fill="#bd4d4d" transform="translate(6 6)" d="M9,0.5l-2,1v3.7734L2,8v6h4v-4h3
	v4h4V8L8,5.2734V4l1-0.5l2,1l2-1v-3l-2,1L9,0.5z"></path></svg>