<svg xmlns="http://www.w3.org/2000/svg" viewBox="0 0 28 28" height="28" width="28"><title>roadblock-15.svg</title><rect fill="none" x="0" y="0" width="28" height="28"></rect><rect x="4" y="4" rx="3" ry="3" width="19" height="19" stroke="#bd4d4d" style="stroke-linejoin:round;stroke-miterlimit:4;" fill="#bd4d4d" stroke-width="4"></rect><rect x="4" y="4" width="19" height="19" rx="3" ry="3" fill="#fff"></rect><path fill="#fff" transform="translate(6 6)" d="M7.5,0C3.3579,0,0,3.3579,0,7.5S3.3579,15,7.5,15S15,11.6421,15,7.5S11.6421,0,7.5,0z M3,6h9v3H3V6z" style="stroke-linejoin:round;stroke-miterlimit:4;" stroke="#fff" stroke-width="5"></path><path fill="#bd4d4d" transform="translate(6 6)" d="M7.5,0C3.3579,0,0,3.3579,0,7.5S3.3579,15,7.5,15S15,11.6421,15,7.5S11.6421,0,7.5,0z M3,6h9v3H3V6z"></path></svg>