<svg xmlns="http://www.w3.org/2000/svg" viewBox="0 0 28 28" height="28" width="28"><title>town-hall-15.svg</title><rect fill="none" x="0" y="0" width="28" height="28"></rect><rect x="4" y="4" rx="3" ry="3" width="19" height="19" stroke="#bd4d4d" style="stroke-linejoin:round;stroke-miterlimit:4;" fill="#bd4d4d" stroke-width="4"></rect><rect x="4" y="4" width="19" height="19" rx="3" ry="3" fill="#fff"></rect><path fill="#fff" transform="translate(6 6)" d="M7.5,0L1,3.4453V4h13V3.4453L7.5,0z M2,5v5l-1,1.5547V13h13v-1.4453L13,10V5H2z M4,6h1v5.5H4V6z M7,6h1v5.5H7
	V6z M10,6h1v5.5h-1V6z" style="stroke-linejoin:round;stroke-miterlimit:4;" stroke="#fff" stroke-width="5"></path><path fill="#bd4d4d" transform="translate(6 6)" d="M7.5,0L1,3.4453V4h13V3.4453L7.5,0z M2,5v5l-1,1.5547V13h13v-1.4453L13,10V5H2z M4,6h1v5.5H4V6z M7,6h1v5.5H7
	V6z M10,6h1v5.5h-1V6z"></path></svg>