<svg xmlns="http://www.w3.org/2000/svg" viewBox="0 0 28 28" height="28" width="28"><title>water-15.svg</title><rect fill="none" x="0" y="0" width="28" height="28"></rect><rect x="4" y="4" rx="3" ry="3" width="19" height="19" stroke="#bd4d4d" style="stroke-linejoin:round;stroke-miterlimit:4;" fill="#bd4d4d" stroke-width="4"></rect><rect x="4" y="4" width="19" height="19" rx="3" ry="3" fill="#fff"></rect><path fill="#fff" transform="translate(6 6)" d="M7.49,15C4.5288,14.827,2.1676,12.4615,2,9.5C2,6.6,6.25,1.66,7.49,0c1.24,1.66,5,6.59,5,9.49S10.17,15,7.49,15z" style="stroke-linejoin:round;stroke-miterlimit:4;" stroke="#fff" stroke-width="5"></path><path fill="#bd4d4d" transform="translate(6 6)" d="M7.49,15C4.5288,14.827,2.1676,12.4615,2,9.5C2,6.6,6.25,1.66,7.49,0c1.24,1.66,5,6.59,5,9.49S10.17,15,7.49,15z"></path></svg>